<?xml version="1.0" encoding="utf-8"?>
<!-- Generator: Adobe Illustrator 22.1.0, SVG Export Plug-In . SVG Version: 6.00 Build 0)  -->
<svg version="1.1" id="Layer_1" xmlns="http://www.w3.org/2000/svg" xmlns:xlink="http://www.w3.org/1999/xlink" x="0px" y="0px"
	 viewBox="0 0 255 220.8" style="enable-background:new 0 0 255 220.8;" xml:space="preserve">
<style type="text/css">
	.st0{fill:none;stroke:#BFE6EC;stroke-width:10;stroke-miterlimit:10;}
	.st1{fill:none;stroke:#BFE6EC;stroke-width:5;stroke-miterlimit:10;}
</style>
<title>triangle-chawley</title>
<polygon class="st0" points="127.5,210.8 246.3,5 8.7,5 "/>
<line class="st1" x1="208.5" y1="68" x2="208.5" y2="3.6"/>
<line class="st1" x1="181.4" y1="117.5" x2="181.2" y2="3.6"/>
<line class="st1" x1="235.6" y1="21.6" x2="235.6" y2="5"/>
<line class="st1" x1="127.1" y1="207.7" x2="127.1" y2="3.6"/>
<line class="st1" x1="100.1" y1="163.3" x2="99.8" y2="3.6"/>
<line class="st1" x1="100.1" y1="165" x2="100.1" y2="163.3"/>
<line class="st1" x1="154.2" y1="164.5" x2="154.2" y2="5"/>
<line class="st1" x1="46.1" y1="71.3" x2="46.1" y2="5"/>
<line class="st1" x1="18.8" y1="24.3" x2="18.8" y2="5"/>
<line class="st1" x1="73.2" y1="120.1" x2="73.2" y2="5"/>
<line class="st1" x1="219.4" y1="51.6" x2="114.3" y2="4.3"/>
<line class="st1" x1="207.1" y1="73" x2="54.9" y2="5"/>
<line class="st1" x1="231.9" y1="30" x2="176.8" y2="5"/>
<line class="st1" x1="182.2" y1="116.1" x2="34.6" y2="49.9"/>
<line class="st1" x1="171.5" y1="137.6" x2="54.6" y2="85.1"/>
<line class="st1" x1="194.7" y1="94.4" x2="12.6" y2="11.8"/>
<line class="st1" x1="145.1" y1="180.3" x2="97.6" y2="159"/>
<line class="st1" x1="132.7" y1="201.9" x2="117.2" y2="194.9"/>
<line class="st1" x1="157.8" y1="158.5" x2="73.2" y2="120.1"/>
</svg>
