<svg xmlns="http://www.w3.org/2000/svg" viewBox="0 0 244.59 211.82"><defs><style>.a,.b{fill:none;stroke:#bfe6ec;stroke-miterlimit:10;}.a{stroke-width:4px;}</style></defs><title>triangle-chawley</title><polygon class="a" points="122.29 207.82 241.12 2 3.46 2 122.29 207.82"/><line class="b" x1="203.3" y1="64.97" x2="203.3" y2="0.63"/><line class="b" x1="176.2" y1="114.51" x2="175.99" y2="0.63"/><line class="b" x1="230.43" y1="18.63" x2="230.43" y2="2"/><line class="b" x1="121.9" y1="204.72" x2="121.9" y2="0.63"/><line class="b" x1="94.88" y1="160.33" x2="94.58" y2="0.63"/><line class="b" x1="94.88" y1="161.97" x2="94.88" y2="160.33"/><line class="b" x1="149.03" y1="161.51" x2="149.03" y2="2"/><line class="b" x1="40.87" y1="68.3" x2="40.87" y2="2"/><line class="b" x1="13.6" y1="21.3" x2="13.56" y2="2"/><line class="b" x1="68.01" y1="117.13" x2="68.01" y2="2"/><line class="b" x1="214.24" y1="48.57" x2="109.07" y2="1.34"/><line class="b" x1="201.89" y1="69.96" x2="49.73" y2="2"/><line class="b" x1="226.7" y1="26.99" x2="171.63" y2="2"/><line class="b" x1="176.96" y1="113.13" x2="29.36" y2="46.86"/><line class="b" x1="166.29" y1="134.58" x2="49.37" y2="82.08"/><line class="b" x1="189.5" y1="91.42" x2="7.37" y2="8.77"/><line class="b" x1="139.89" y1="177.34" x2="92.38" y2="156"/><line class="b" x1="127.46" y1="198.87" x2="111.95" y2="191.95"/><line class="b" x1="152.55" y1="155.49" x2="68.01" y2="117.13"/></svg>